<?xml version="1.0" standalone="no"?>
<!DOCTYPE svg PUBLIC "-//W3C//DTD SVG 20010904//EN"
 "http://www.w3.org/TR/2001/REC-SVG-20010904/DTD/svg10.dtd">
<svg version="1.0" xmlns="http://www.w3.org/2000/svg"
 width="259.000000pt" height="259.000000pt" viewBox="0 0 259.000000 259.000000"
 preserveAspectRatio="xMidYMid meet">
<metadata>
Created by potrace 1.11, written by Peter Selinger 2001-2013
</metadata>
<g transform="translate(0.000000,259.000000) scale(0.100000,-0.100000)"
fill="#000000" stroke="none">
<path d="M320 1920 c1 -422 4 -670 10 -670 6 0 10 9 10 19 0 23 23 34 39 18
20 -20 23 0 7 51 -15 53 -10 64 27 54 12 -3 17 -15 17 -43 0 -22 -4 -39 -10
-39 -5 0 -10 -7 -10 -15 0 -32 20 -13 26 26 8 46 24 35 24 -18 0 -50 20 -51
21 -1 1 24 4 33 6 21 4 -19 8 -21 24 -13 10 6 19 21 19 35 0 35 22 125 31 125
4 0 6 -8 4 -17 -1 -10 0 -12 2 -5 3 6 15 12 28 12 28 0 43 -17 44 -50 0 -14 2
-45 5 -70 3 -25 5 -58 5 -74 1 -16 4 -27 7 -23 3 3 5 52 5 110 l-1 104 69 2
c40 1 72 -2 76 -9 3 -6 11 -8 16 -5 5 4 9 -25 9 -69 0 -42 4 -76 9 -76 12 0
17 49 13 118 -4 51 -5 52 -35 53 -18 1 -24 3 -14 6 9 2 17 11 17 19 0 8 5 14
10 14 6 0 10 -7 10 -15 0 -8 4 -15 10 -15 12 0 31 35 27 52 -2 7 -2 10 0 6 11
-20 21 -5 13 17 -12 33 7 70 27 53 9 -7 17 -7 27 1 10 9 16 8 26 -4 7 -8 17
-12 23 -8 6 4 7 1 2 -6 -5 -9 -10 -10 -18 -2 -6 6 -15 11 -20 11 -5 0 2 -9 17
-21 14 -11 31 -17 38 -13 10 6 11 4 1 -7 -7 -7 -13 -17 -13 -21 0 -12 48 -10
55 2 5 8 12 7 22 -1 11 -10 16 -10 23 0 5 9 10 10 14 2 4 -6 2 -11 -3 -11 -20
0 -11 -15 24 -40 36 -26 44 -45 22 -53 -9 -3 -9 -8 2 -21 8 -9 15 -33 16 -52
2 -20 11 -42 23 -52 16 -14 17 -21 9 -42 -6 -14 -16 -45 -21 -70 -10 -38 -16
-46 -41 -51 -17 -4 -22 -7 -13 -8 13 -1 17 -9 15 -38 l-2 -38 -92 1 c-50 0
-90 -3 -87 -8 3 -4 0 -8 -5 -8 -24 0 -9 -15 15 -17 25 -1 47 -20 39 -33 -2 -3
5 -12 17 -19 11 -7 17 -8 13 -2 -3 6 -2 11 4 11 5 0 13 -5 16 -11 5 -7 12 -6
23 4 32 27 39 27 34 2 -6 -35 16 -52 63 -49 23 2 42 -2 47 -8 4 -7 10 -10 13
-6 3 3 -5 18 -19 33 -15 16 -26 25 -26 21 0 -4 -9 -2 -21 4 -20 11 -20 12 -3
31 10 11 24 17 32 14 8 -3 21 0 28 6 8 6 21 9 29 5 11 -4 15 2 16 24 3 62 9
69 44 46 19 -13 23 -21 16 -30 -6 -7 -6 -17 -1 -26 6 -9 10 -10 10 -3 0 8 6 8
25 0 27 -13 33 -27 13 -27 -7 0 -5 -5 5 -11 9 -6 15 -15 11 -21 -4 -6 2 -6 15
1 11 7 21 17 21 23 0 7 14 9 38 5 20 -3 31 -3 24 0 -6 2 -10 9 -6 14 3 5 -1 9
-10 9 -8 0 -16 5 -18 12 -2 6 -13 12 -24 14 -18 3 -18 2 -1 -10 23 -18 22 -29
-4 -21 -18 6 -20 4 -14 -14 3 -12 2 -21 -3 -21 -5 0 -9 10 -8 22 1 13 -4 32
-11 43 -7 12 -11 35 -9 53 3 17 0 35 -6 38 -7 4 -8 2 -4 -4 4 -7 0 -12 -10
-12 -10 0 -14 3 -11 7 8 8 -39 33 -62 33 -9 0 -1 -8 16 -16 41 -21 32 -38 -16
-31 -82 14 -98 22 -80 43 9 11 8 14 -7 14 -12 0 -15 3 -8 8 6 4 10 15 8 26 -1
10 5 20 14 23 15 3 16 17 12 113 -5 99 0 127 13 75 4 -16 5 -15 6 5 0 14 -3
31 -8 39 -6 9 -6 24 0 38 10 26 -12 60 -30 48 -5 -3 -12 -1 -16 5 -4 6 9 10
33 10 44 0 56 8 42 26 -6 6 -9 18 -8 25 2 9 -9 15 -32 17 -55 5 -61 22 -8 22
49 0 59 9 54 54 -2 17 2 26 10 26 19 0 18 19 -2 41 -14 16 -14 18 5 24 20 6
25 18 34 75 3 14 5 3 6 -25 1 -38 4 -46 12 -35 8 11 12 12 16 2 2 -6 9 -9 15
-6 6 4 1 13 -13 21 l-24 13 25 -2 c27 -3 40 26 20 46 -9 8 -10 5 -5 -16 6 -23
4 -26 -14 -21 -20 5 -26 23 -22 68 1 11 2 28 2 37 0 9 7 22 15 29 11 9 14 8
14 -5 0 -10 -5 -14 -11 -10 -7 4 -10 1 -7 -6 10 -30 28 -21 28 12 0 48 7 51
49 22 l36 -24 13 30 c8 20 17 28 25 24 6 -4 3 2 -8 13 -17 17 -21 18 -31 5 -9
-13 -13 -11 -27 9 -12 17 -17 19 -17 7 0 -8 7 -21 15 -28 12 -10 18 -10 32 1
14 12 16 12 11 -1 -5 -17 -56 -26 -68 -13 -5 4 -10 22 -12 38 -2 25 0 29 16
27 10 -2 22 1 26 8 9 15 36 3 47 -22 8 -20 10 -20 16 -4 4 10 3 15 -3 11 -6
-3 -10 1 -10 10 0 9 4 14 10 10 5 -3 16 7 24 22 13 24 15 25 16 8 l1 -20 9 20
c6 14 9 4 9 -37 1 -32 -2 -58 -7 -58 -13 0 -34 -60 -30 -85 3 -13 0 -26 -6
-29 -7 -3 -4 -9 6 -16 9 -6 23 -16 30 -24 15 -15 95 -18 104 -5 8 14 44 11 44
-3 0 -9 4 -8 10 2 7 12 3 16 -18 21 -15 3 -36 1 -47 -5 -26 -13 -70 -14 -70
-1 0 6 3 9 7 8 5 -2 8 2 8 7 0 6 -11 8 -25 6 -26 -5 -26 -4 -29 52 -1 23 3 28
23 30 23 2 24 1 7 -11 -10 -8 -16 -20 -13 -28 4 -11 6 -10 6 3 1 9 10 20 21
23 29 9 24 25 -7 25 -26 1 -27 2 -10 14 16 12 17 24 13 86 -3 42 -1 80 5 92 6
10 9 24 6 31 -2 7 -10 -8 -19 -33 -8 -25 -20 -45 -27 -45 -7 0 -19 -11 -26
-25 -13 -22 -21 -15 -16 13 1 5 -3 6 -8 2 -6 -3 -7 -13 -4 -21 4 -11 1 -15
-11 -13 -9 2 -17 7 -17 12 1 4 1 16 1 28 0 14 5 19 13 16 19 -7 33 4 41 33 6
25 6 25 -5 3 -13 -25 -24 -29 -35 -11 -5 7 -3 8 7 3 8 -5 -1 5 -18 22 -23 22
-33 40 -33 61 0 47 -17 82 -40 82 -26 0 -34 34 -27 113 3 38 2 55 -4 46 -5 -8
-9 -47 -9 -87 0 -46 -4 -71 -10 -67 -5 3 -10 1 -10 -4 0 -6 7 -11 15 -11 8 0
15 -8 16 -17 0 -11 3 -13 6 -5 14 36 54 -9 52 -61 0 -21 -1 -21 -10 -2 -8 18
-9 17 -6 -6 3 -19 -1 -26 -12 -25 -16 1 -31 14 -31 28 0 4 7 5 15 2 19 -7 20
10 2 25 -10 8 -17 7 -25 -1 -10 -10 -11 -5 -6 20 5 27 4 31 -9 26 -14 -5 -15
9 -10 120 5 111 3 126 -11 126 -13 0 -16 -11 -15 -57 1 -47 3 -53 10 -33 8 22
8 22 3 -5 -3 -16 -7 -47 -9 -69 -7 -69 -15 -51 -15 35 0 46 -3 94 -6 107 l-6
22 -484 0 -484 0 0 -670z m996 394 c1 -37 1 -38 -3 -4 -3 19 -10 39 -16 43 -8
6 -7 7 3 4 10 -2 15 -17 16 -43z m26 -9 c-2 -14 -6 -25 -8 -25 -2 0 -4 11 -4
25 0 14 4 25 9 25 4 0 6 -11 3 -25z m-35 -72 c-3 -10 -5 -4 -5 12 0 17 2 24 5
18 2 -7 2 -21 0 -30z m66 5 c4 -12 3 -25 -1 -28 -4 -3 -8 -28 -10 -56 -3 -45
-1 -52 17 -57 34 -9 28 -53 -10 -73 l-32 -16 7 27 c6 23 5 25 -7 14 -8 -8 -17
-21 -20 -29 -4 -8 -6 0 -4 18 2 17 0 32 -5 32 -4 0 -8 10 -7 23 0 12 3 16 6
10 3 -10 10 -10 24 -2 17 9 19 18 15 72 -4 62 0 87 14 87 4 0 10 -10 13 -22z
m92 -18 c3 -5 1 -10 -4 -10 -6 0 -11 5 -11 10 0 6 2 10 4 10 3 0 8 -4 11 -10z
m-138 -32 c-3 -7 -5 -2 -5 12 0 14 2 19 5 13 2 -7 2 -19 0 -25z m70 10 c-3 -8
-6 -5 -6 6 -1 11 2 17 5 13 3 -3 4 -12 1 -19z m-87 -18 c0 -11 4 -20 8 -20 11
0 12 -39 1 -45 -5 -4 -9 4 -10 17 -1 20 -2 19 -10 -7 -5 -16 -7 -44 -4 -62 3
-17 1 -34 -5 -38 -12 -7 -14 -45 -2 -45 4 0 7 -12 6 -27 -4 -46 -5 -49 -14
-28 -14 33 -11 151 6 201 8 25 13 52 10 60 -3 8 -1 14 4 14 6 0 10 -9 10 -20z
m141 -3 c-10 -9 -11 -8 -5 6 3 10 9 15 12 12 3 -3 0 -11 -7 -18z m-20 -24 c0
-11 3 -13 6 -5 9 22 23 13 14 -10 -12 -32 -36 -29 -36 5 -1 29 14 39 16 10z
m-332 -65 l-2 -63 -7 55 c-6 51 -5 70 6 70 2 0 3 -28 3 -62z m-217 -51 c15
-32 23 -59 18 -67 -7 -11 -29 36 -36 80 -2 8 -8 16 -13 18 -13 4 -15 22 -3 22
4 0 20 -24 34 -53z m298 -49 c0 6 9 12 20 12 26 0 28 -40 3 -41 -15 0 -15 -2
2 -9 18 -8 17 -9 -7 -9 -18 -1 -28 4 -28 14 0 9 -6 12 -15 9 -10 -4 -15 0 -15
13 0 29 11 35 26 15 8 -10 13 -12 14 -4z m-715 2 c-3 -5 -10 -10 -16 -10 -5 0
-9 5 -9 10 0 6 7 10 16 10 8 0 12 -4 9 -10z m854 -56 c-1 -40 -5 -60 -10 -52
-10 14 -12 6 -10 -32 1 -15 -1 -20 -6 -14 -4 6 -15 14 -23 17 -11 4 -10 6 5 6
18 1 17 3 -5 14 -22 11 -25 19 -26 67 -1 50 -1 51 3 8 8 -89 63 -84 63 6 0 25
2 46 5 46 3 0 5 -30 4 -66z m-389 1 c0 -5 -5 -3 -10 5 -5 8 -10 20 -10 25 0 6
5 3 10 -5 5 -8 10 -19 10 -25z m290 -25 c0 -13 -7 -20 -19 -20 -25 0 -38 20
-14 21 16 0 16 1 -2 9 -18 8 -17 9 8 9 21 1 27 -4 27 -19z m-112 -29 c3 -8 -1
-12 -9 -9 -7 2 -15 10 -17 17 -3 8 1 12 9 9 7 -2 15 -10 17 -17z m-328 -12 c0
-6 -4 -7 -10 -4 -5 3 -10 11 -10 16 0 6 5 7 10 4 6 -3 10 -11 10 -16z m433 4
c-7 -2 -21 -2 -30 0 -10 3 -4 5 12 5 17 0 24 -2 18 -5z m4 -28 c0 -10 -9 -15
-26 -14 -21 1 -22 2 -6 7 l20 5 -20 8 c-18 7 -17 8 6 8 16 1 26 -4 26 -14z
m-162 -150 c0 -16 -6 -19 -30 -16 -42 4 -49 11 -28 27 26 20 58 14 58 -11z
m-100 -14 c-3 -5 9 -12 27 -14 18 -2 4 -5 -31 -5 -61 -2 -74 9 -26 21 33 8 36
7 30 -2z m208 -18 c-7 -2 -19 -2 -25 0 -7 3 -2 5 12 5 14 0 19 -2 13 -5z
m-120 -20 c-7 -2 -21 -2 -30 0 -10 3 -4 5 12 5 17 0 24 -2 18 -5z m-518 -24
c2 -9 -3 -16 -9 -16 -7 0 -13 9 -13 19 -2 23 19 19 22 -3z m702 -11 c-3 -8 -6
-5 -6 6 -1 11 2 17 5 13 3 -3 4 -12 1 -19z m-505 -10 c-4 -16 -2 -19 8 -13 10
6 11 4 5 -11 -22 -54 -12 -100 20 -88 7 3 16 1 19 -5 4 -7 -16 -10 -59 -10
-49 1 -65 4 -65 15 0 8 7 14 15 14 12 0 15 13 15 57 0 55 11 63 24 18 3 -12 4
-9 2 7 -2 15 2 29 8 32 6 2 12 5 13 5 0 1 -1 -9 -5 -21z m395 6 c-3 -3 -12 -4
-19 -1 -8 3 -5 6 6 6 11 1 17 -2 13 -5z m-330 -10 c-3 -3 -12 -4 -19 -1 -8 3
-5 6 6 6 11 1 17 -2 13 -5z m300 -10 c3 -8 11 -13 18 -10 6 2 18 0 26 -5 11
-7 10 -9 -6 -9 -34 0 -63 11 -69 26 -3 8 1 14 10 14 8 0 17 -7 21 -16z m78 -1
c18 -14 18 -15 2 -9 -10 3 -23 6 -28 6 -5 0 -9 5 -9 10 0 14 12 12 35 -7z
m-650 -13 c3 -6 -1 -7 -9 -4 -18 7 -21 14 -7 14 6 0 13 -4 16 -10z m535 -18
c0 -5 -7 -9 -15 -9 -8 0 -12 4 -9 9 3 4 9 8 15 8 5 0 9 -4 9 -8z m-203 -8 c-3
-3 -12 -4 -19 -1 -8 3 -5 6 6 6 11 1 17 -2 13 -5z m-227 -38 c0 -27 -4 -34
-18 -33 -14 1 -17 8 -14 34 6 45 32 44 32 -1z m-160 -67 c0 -6 -7 -9 -15 -6
-8 4 -17 2 -20 -4 -7 -11 -25 -3 -25 12 0 5 14 9 30 9 17 0 30 -5 30 -11z m57
-111 c-3 -8 -6 -5 -6 6 -1 11 2 17 5 13 3 -3 4 -12 1 -19z m878 -268 c3 -5 2
-10 -4 -10 -5 0 -13 5 -16 10 -3 6 -2 10 4 10 5 0 13 -4 16 -10z"/>
<path d="M1353 2069 c14 -8 22 -8 30 0 8 8 3 11 -18 11 -26 -1 -28 -2 -12 -11z"/>
<path d="M1281 2044 c0 -11 3 -14 6 -6 3 7 2 16 -1 19 -3 4 -6 -2 -5 -13z"/>
<path d="M701 1534 c0 -11 3 -14 6 -6 3 7 2 16 -1 19 -3 4 -6 -2 -5 -13z"/>
<path d="M1350 2565 c0 -14 2 -25 4 -25 2 0 6 11 8 25 3 14 1 25 -3 25 -5 0
-9 -11 -9 -25z"/>
<path d="M1434 2558 c0 -67 -8 -139 -16 -144 -11 -7 -10 -24 1 -24 12 0 21 39
28 126 3 44 2 74 -4 74 -5 0 -9 -15 -9 -32z"/>
<path d="M1468 2528 c-4 -69 0 -88 13 -67 5 8 7 37 5 64 -4 36 -3 43 3 25 6
-16 9 -19 10 -8 1 9 -2 23 -5 32 -12 32 -22 14 -26 -46z"/>
<path d="M1520 2562 c0 -16 -7 -51 -15 -78 -18 -58 -18 -67 -5 -59 6 3 10 1
10 -5 0 -6 -6 -13 -14 -16 -13 -5 -43 -62 -35 -67 54 -30 69 -36 73 -28 4 5
-10 15 -29 22 -33 12 -50 32 -22 27 6 -2 12 4 12 12 0 8 5 20 11 27 12 13 34
120 34 166 0 15 -4 27 -10 27 -5 0 -10 -13 -10 -28z m-3 -104 c-3 -8 -6 -5 -6
6 -1 11 2 17 5 13 3 -3 4 -12 1 -19z"/>
<path d="M1590 2550 c0 -22 3 -40 8 -40 4 0 7 18 7 40 0 22 -3 40 -7 40 -5 0
-8 -18 -8 -40z"/>
<path d="M1656 2560 c10 -54 25 -83 18 -35 -4 22 -11 47 -16 55 -6 10 -7 3 -2
-20z"/>
<path d="M1720 2550 c0 -34 -9 -85 -34 -205 -1 -5 -10 -27 -19 -48 -16 -36
-19 -38 -49 -32 -29 7 -31 6 -19 -8 7 -9 10 -25 6 -36 -3 -11 -1 -23 6 -27 8
-4 9 -3 5 5 -4 6 -1 18 8 26 13 13 15 13 22 -7 l7 -23 9 25 c5 13 6 30 4 37
-3 7 -2 13 2 13 8 0 36 77 47 128 4 17 10 32 15 32 8 0 -14 -92 -26 -112 -2
-4 0 -10 6 -13 6 -4 10 -3 8 2 -1 4 4 26 10 48 6 22 13 51 16 65 3 14 10 51
16 83 6 32 9 66 7 75 -2 9 -7 -5 -11 -33 -14 -93 -25 -114 -20 -39 4 46 2 74
-5 78 -7 5 -11 -7 -11 -34z"/>
<path d="M1796 2574 c-3 -9 -4 -20 0 -25 3 -5 1 -9 -4 -9 -9 0 -19 -51 -27
-135 -2 -18 -10 -46 -18 -62 -11 -20 -12 -34 -6 -46 8 -13 7 -17 -3 -15 -7 2
-12 -3 -10 -10 2 -10 -2 -10 -20 -1 -19 9 -21 9 -10 -2 19 -20 15 -52 -6 -47
-12 4 -18 -1 -18 -13 0 -10 4 -15 8 -13 4 3 8 0 8 -5 0 -17 -18 -13 -39 8 -19
19 -19 19 -27 -2 -6 -21 -9 -29 -14 -52 -4 -16 1 -59 8 -70 4 -5 7 -19 8 -30
2 -40 4 -45 19 -45 21 0 19 -18 -2 -23 -17 -4 -17 -5 0 -6 13 -1 16 -7 11 -26
-7 -30 6 -33 25 -6 8 11 24 18 37 16 13 -1 22 1 19 4 -2 4 0 13 4 20 5 7 8 1
9 -18 0 -25 -4 -31 -19 -31 -12 0 -17 4 -13 11 4 8 0 8 -15 0 -28 -15 -27 -17
12 -19 19 -1 48 -6 65 -11 22 -7 31 -6 29 2 -1 6 4 11 11 12 7 0 17 7 22 15 7
10 10 11 11 3 4 -34 6 -38 17 -35 7 1 12 -3 12 -8 0 -13 32 -9 43 5 4 6 13 2
23 -10 16 -20 16 -20 9 3 -8 29 2 62 20 62 8 0 19 9 25 19 15 29 12 39 -5 14
-19 -27 -60 -35 -79 -14 -12 14 -30 58 -28 71 0 3 -4 13 -9 23 -7 13 -6 17 6
17 10 0 13 -5 9 -12 -4 -7 4 -3 17 8 13 12 29 20 36 17 14 -5 31 25 28 50 -2
9 2 17 8 17 5 0 8 3 4 6 -3 3 -21 -6 -40 -20 -44 -34 -59 -33 -55 2 2 15 8 25
13 22 6 -3 9 -8 7 -12 -4 -13 5 -9 19 9 8 10 9 14 2 10 -20 -12 -26 14 -7 29
18 14 18 15 -1 5 -32 -15 -72 -63 -57 -68 6 -3 12 -9 12 -14 0 -6 -6 -7 -12
-4 -7 4 -5 0 4 -8 27 -22 9 -29 -21 -8 -14 10 -32 16 -38 14 -20 -7 -15 7 10
28 l22 20 -22 -13 c-28 -16 -50 1 -38 29 11 25 12 30 13 94 2 47 8 66 37 108
63 91 112 191 94 191 -5 0 -13 -8 -16 -17 -4 -10 -11 -21 -15 -24 -5 -3 -10
-13 -12 -22 -1 -10 -11 -24 -22 -33 -10 -8 -13 -13 -7 -9 9 4 11 1 7 -9 -3 -9
-10 -14 -14 -11 -5 3 -12 -4 -15 -16 -4 -13 -11 -17 -16 -12 -5 5 1 38 15 81
24 69 24 72 6 72 -12 0 -17 -5 -14 -13 3 -8 -2 -14 -10 -14 -8 0 -12 6 -9 14
3 7 3 13 0 13 -3 0 -8 -7 -11 -16z m16 -65 c-7 -31 -9 -32 -14 -11 -3 12 -2
22 3 22 5 0 9 8 9 17 0 9 3 14 6 11 3 -3 1 -21 -4 -39z m-18 -71 c-6 -50 -14
-45 -14 8 0 30 3 44 9 36 4 -8 7 -28 5 -44z m-14 -184 c-11 -60 -10 -76 0 -90
12 -13 7 -21 -33 -56 -26 -22 -47 -46 -47 -53 0 -9 -7 -11 -22 -7 -14 3 -19 2
-14 -7 4 -6 12 -9 17 -6 5 4 9 2 9 -3 0 -14 -49 -21 -57 -9 -4 6 -1 7 7 2 9
-5 10 -2 6 13 -4 12 1 34 14 57 11 20 15 33 9 29 -9 -5 -10 -2 -6 10 4 10 7
22 7 27 0 5 5 9 10 9 14 0 12 -63 -2 -80 -11 -12 -10 -12 5 -1 12 10 17 28 17
69 0 30 3 53 6 49 4 -3 6 -24 6 -47 0 -22 1 -40 2 -40 2 0 15 11 29 24 27 25
27 25 6 39 -17 12 -19 21 -14 51 4 20 12 36 17 36 6 0 8 -7 5 -15 -4 -8 -1
-17 5 -21 8 -5 9 3 5 24 -4 19 -2 32 3 32 6 0 10 15 11 33 0 17 3 26 6 18 3
-7 0 -46 -7 -87z m-143 -115 c-8 -33 -7 -43 4 -50 11 -7 10 -9 -4 -9 -16 0
-18 7 -15 43 2 34 12 55 24 57 1 0 -3 -18 -9 -41z m328 4 c-2 -10 -4 -21 -4
-25 -2 -14 -19 -9 -24 6 -4 10 -1 13 9 9 8 -3 14 -2 13 3 -2 13 0 24 5 24 2 0
3 -8 1 -17z m-160 -23 c3 -5 1 -10 -4 -10 -6 0 -11 -7 -11 -16 0 -9 6 -14 13
-11 6 2 20 -3 30 -11 16 -15 17 -14 11 1 -3 10 -1 17 5 17 7 0 11 -23 11 -60
0 -50 2 -58 16 -53 9 3 19 1 23 -4 3 -5 15 -15 26 -22 18 -11 18 -12 1 -7 -15
5 -17 4 -7 -8 7 -8 8 -17 2 -20 -14 -9 -58 -3 -59 9 -5 58 -16 115 -24 115 -4
0 -5 -17 -2 -39 4 -24 2 -41 -5 -45 -7 -5 -11 2 -12 18 -2 42 -4 46 -14 46 -5
-1 -8 -11 -6 -23 8 -50 6 -72 -9 -75 -18 -3 -24 20 -22 93 2 93 17 137 37 105z
m119 -12 c-3 -4 -9 -8 -15 -8 -5 0 -9 4 -9 8 0 5 7 9 15 9 8 0 12 -4 9 -9z
m-164 -36 c0 -10 -3 -22 -7 -26 -5 -4 -8 -11 -9 -14 -2 -14 -24 -62 -28 -62
-3 0 0 14 6 31 6 16 8 33 5 36 -3 3 -9 -6 -12 -20 -4 -15 -13 -32 -21 -38 -12
-10 -13 -9 -8 5 4 9 1 16 -6 16 -7 0 0 10 16 23 16 12 32 21 36 20 5 -2 8 8 8
22 0 14 5 25 10 25 6 0 10 -8 10 -18z"/>
<path d="M1745 2210 c3 -5 8 -10 11 -10 2 0 4 5 4 10 0 6 -5 10 -11 10 -5 0
-7 -4 -4 -10z"/>
<path d="M1774 1974 c3 -9 6 -18 6 -20 0 -3 4 -3 10 1 11 7 2 35 -12 35 -6 0
-7 -7 -4 -16z"/>
<path d="M1997 2570 c-3 -11 -3 -20 -1 -20 2 0 8 9 14 20 6 11 7 20 2 20 -6 0
-12 -9 -15 -20z"/>
<path d="M2070 2566 c-5 -15 -10 -37 -10 -49 -1 -12 -7 -39 -14 -59 -8 -21
-10 -36 -6 -33 9 5 41 100 39 112 -1 4 1 16 6 26 4 10 5 21 2 24 -4 3 -11 -6
-17 -21z"/>
<path d="M2246 2556 c3 -9 -3 -32 -15 -52 -12 -19 -19 -39 -16 -44 3 -4 -3
-14 -13 -21 -16 -13 -16 -13 -2 6 14 19 14 19 -3 6 -11 -9 -15 -21 -11 -33 3
-11 -4 -40 -17 -66 -12 -26 -23 -63 -23 -84 -1 -20 -4 -34 -7 -32 -4 2 -10 -3
-13 -12 -8 -21 -8 -24 5 -24 5 0 7 5 3 12 -4 7 -3 8 4 4 15 -9 4 -36 -12 -30
-9 4 -17 -14 -25 -58 -7 -35 -19 -85 -27 -112 -18 -63 -18 -64 6 -36 11 13 20
29 20 37 0 8 5 11 12 7 7 -4 8 -3 4 5 -4 6 -3 17 3 24 5 7 17 46 25 87 9 40
21 77 27 81 6 4 8 16 4 28 -3 11 -3 26 1 32 11 18 24 -12 17 -40 -4 -16 -2
-22 5 -17 6 3 14 1 18 -5 5 -8 3 -9 -6 -4 -9 5 -10 1 -6 -16 l7 -24 -16 25
c-15 24 -16 23 -11 -35 4 -33 2 -73 -3 -90 -8 -25 -9 -20 -6 25 l4 55 -13 -60
c-7 -33 -14 -53 -15 -45 -3 18 -19 -16 -20 -40 -1 -13 0 -13 9 0 9 13 10 13
10 0 0 -8 3 -26 7 -39 5 -19 3 -23 -8 -19 -11 4 -14 -3 -11 -33 2 -21 -1 -52
-6 -69 -7 -18 -7 -30 -1 -30 5 0 9 5 9 10 0 6 5 10 10 10 6 0 5 -8 -2 -20 -7
-11 -19 -18 -26 -15 -7 3 -11 1 -8 -4 3 -4 -3 -16 -13 -25 -18 -17 -20 -16
-42 13 -13 17 -28 31 -33 31 -6 0 -5 -4 2 -8 8 -5 10 -16 6 -27 -6 -13 -4 -16
6 -10 8 5 11 3 8 -6 -3 -8 -11 -13 -17 -11 -7 1 -10 -2 -6 -8 4 -6 1 -17 -5
-25 -18 -22 16 -32 39 -11 26 24 34 19 15 -9 -16 -25 -63 -32 -65 -10 -1 5 -4
-1 -8 -15 -5 -16 -13 -24 -24 -22 -9 2 -17 -1 -17 -6 0 -6 -11 -12 -24 -16
l-23 -6 5 -165 c3 -114 1 -165 -6 -165 -6 0 -13 10 -15 23 -3 15 -5 12 -6 -11
0 -21 3 -31 9 -27 7 4 10 -32 8 -112 l-3 -118 -42 -6 c-24 -3 -43 -2 -43 2 0
4 15 9 33 11 28 3 32 7 33 33 1 28 1 28 -3 3 -4 -25 -8 -28 -44 -28 -26 0 -39
-4 -38 -12 3 -27 -2 -38 -16 -38 -8 0 -12 -6 -10 -12 4 -10 -10 -12 -57 -9
-56 4 -59 5 -28 11 22 5 3 7 -52 6 -49 0 -88 -4 -88 -8 0 -5 18 -8 39 -8 32 0
137 -18 149 -25 9 -6 -13 -35 -27 -36 -10 0 -7 -4 8 -10 18 -7 27 -6 33 3 5 9
8 10 8 1 0 -6 -5 -15 -11 -18 -6 -4 -8 -13 -5 -21 7 -19 -4 -74 -15 -74 -5 0
-6 7 -3 15 5 11 2 13 -9 9 -9 -3 -21 -21 -27 -40 -6 -19 -15 -34 -20 -34 -5 0
-17 -17 -27 -38 -10 -20 -24 -36 -31 -34 -8 1 -11 -2 -7 -8 3 -5 1 -10 -4 -10
-6 0 -11 -6 -11 -12 -1 -17 -35 -58 -49 -58 -8 0 -7 -6 1 -19 12 -19 12 -19
28 0 10 10 20 16 24 12 3 -3 6 1 6 9 0 9 7 21 15 28 8 7 12 16 9 21 -3 5 0 9
6 9 7 0 20 10 30 23 22 27 28 22 32 -24 2 -24 -1 -33 -10 -31 -10 2 -11 -4 -6
-20 4 -13 7 -30 6 -39 0 -10 15 -24 38 -34 39 -17 77 -14 65 5 -3 5 0 10 8 10
8 0 17 -7 21 -15 3 -8 10 -15 16 -15 15 0 3 41 -16 56 -7 6 -10 15 -6 19 4 5
1 5 -5 1 -7 -4 -13 -2 -13 4 0 7 -7 10 -14 7 -10 -4 -13 -1 -9 8 3 8 10 12 15
9 6 -4 5 2 -1 14 -6 12 -16 24 -23 28 -7 4 -8 3 -4 -4 4 -7 2 -12 -4 -12 -7 0
-10 7 -6 15 7 19 -3 45 -16 45 -6 0 -4 -8 3 -18 13 -15 12 -16 -4 -3 -11 8
-15 21 -12 32 4 11 2 19 -5 19 -6 0 -8 4 -5 10 11 17 35 11 30 -8 -3 -9 1 -3
9 13 8 17 15 55 16 86 0 53 1 56 24 54 19 -3 23 1 19 19 -3 15 -2 17 5 8 7
-11 10 -11 15 1 5 13 10 14 30 4 16 -7 23 -17 19 -27 -5 -13 -3 -13 11 -1 14
11 23 12 43 2 31 -14 44 -14 44 0 0 5 -4 8 -9 5 -5 -4 -11 -1 -13 4 -2 6 -10
12 -18 14 -8 2 -28 8 -43 14 -15 7 -39 15 -52 18 -30 7 -33 24 -6 31 13 3 17
11 14 24 -5 16 -1 20 18 18 13 -1 31 -1 40 -1 16 2 45 49 40 67 -10 37 -10
249 0 261 6 7 9 36 7 63 -2 28 1 47 6 43 5 -3 6 2 3 12 -4 10 -10 29 -14 43
-5 20 -3 24 8 18 11 -6 12 -5 2 6 -7 7 -13 28 -13 45 0 35 22 50 55 37 14 -5
17 -3 12 10 -3 8 1 21 9 27 11 10 14 10 14 0 0 -7 7 -10 15 -6 19 7 19 1 -1
-18 -8 -9 -12 -16 -7 -16 12 0 35 16 34 24 -3 17 0 20 9 6 6 -9 5 -19 -3 -29
-10 -12 -9 -12 11 0 12 8 23 23 24 34 0 11 4 0 7 -25 l7 -45 4 58 c5 63 -2 72
-21 28 -12 -26 -15 -27 -25 -13 -9 13 -8 22 9 44 11 15 24 25 29 22 4 -3 8 3
8 13 0 11 7 28 15 39 14 19 14 19 15 -1 0 -25 -29 -235 -36 -255 -5 -13 -7
-12 -15 3 -6 9 -15 17 -22 17 -8 0 -7 -3 2 -9 10 -6 14 -26 12 -61 -1 -30 3
-49 8 -46 5 4 12 0 14 -6 4 -10 8 -9 16 2 12 17 15 1 5 -25 -5 -13 -9 -14 -15
-4 -6 10 -10 9 -15 -6 -4 -11 -15 -30 -25 -43 -10 -13 -15 -30 -12 -38 3 -8 0
-14 -6 -14 -6 0 -10 -3 -10 -7 1 -5 0 -11 -1 -15 -7 -22 -4 -54 5 -61 7 -6 6
-10 -2 -14 -7 -2 -13 -14 -12 -26 0 -12 3 -16 6 -9 2 6 10 12 17 12 8 0 11 12
8 37 -4 27 0 40 14 50 16 12 17 17 6 45 -15 39 -8 50 24 38 16 -7 23 -7 19 0
-9 14 16 93 34 108 8 6 10 12 4 12 -14 0 -21 89 -14 175 5 63 8 70 26 67 16
-2 17 -1 5 7 -8 5 -18 7 -23 4 -6 -4 -7 13 -3 43 4 27 8 57 9 66 1 12 5 14 13
7 7 -6 16 -4 24 6 7 8 11 15 9 16 -28 6 -55 4 -61 -4 -8 -13 -21 34 -16 58 5
26 23 22 25 -5 l2 -25 -8 25 c-9 24 -9 24 -10 -7 -1 -25 2 -31 14 -27 8 4 15
15 15 26 0 10 4 17 10 13 5 -3 6 -13 3 -22 -4 -10 -2 -14 5 -9 6 3 13 2 17 -4
4 -6 11 -8 16 -4 5 3 7 10 3 15 -3 5 -10 7 -15 4 -13 -9 -10 6 7 35 14 24 15
24 11 3 -3 -13 -1 -23 3 -23 15 0 7 158 -9 172 -12 11 -13 10 -6 -7 4 -11 9
-29 12 -40 3 -16 1 -15 -11 5 l-16 25 6 -30 c4 -23 3 -26 -5 -15 -6 8 -11 10
-11 4 0 -5 7 -19 15 -30 20 -26 19 -39 -2 -19 -16 16 -17 16 -25 -4 -11 -30
-13 -26 -13 18 0 22 2 38 5 36 6 -4 9 12 13 64 1 16 7 27 12 25 6 -3 10 14 9
38 0 24 3 48 6 53 11 15 21 65 14 65 -4 0 -13 -8 -20 -17 -13 -17 -13 -17 -14
3 0 11 -5 25 -12 32 -9 9 -9 15 0 24 15 15 16 32 1 23 -5 -4 -3 10 6 32 9 21
20 40 25 41 6 2 10 12 10 23 0 10 5 19 10 19 13 0 13 107 0 115 -6 3 -7 -1 -4
-9z m-79 -558 c-3 -8 -6 -5 -6 6 -1 11 2 17 5 13 3 -3 4 -12 1 -19z m-72 -238
c3 6 11 8 16 4 6 -4 6 -11 -2 -20 -6 -7 -15 -11 -20 -8 -5 3 -19 -2 -31 -10
-35 -24 -41 -19 -17 14 16 22 26 27 35 19 8 -7 14 -7 19 1z m62 -152 c-2 -13
-4 -3 -4 22 0 25 2 35 4 23 2 -13 2 -33 0 -45z m-349 -648 c14 0 14 -1 0 -12
-9 -7 -18 -20 -21 -28 -3 -8 -5 3 -5 25 0 22 2 34 5 28 2 -7 12 -13 21 -13z
m-70 -175 c-3 -3 -9 2 -12 12 -6 14 -5 15 5 6 7 -7 10 -15 7 -18z m24 -147
c-7 -7 -12 -8 -12 -2 0 14 12 26 19 19 2 -3 -1 -11 -7 -17z m-27 -68 c3 -5 -1
-10 -10 -10 -9 0 -13 5 -10 10 3 6 8 10 10 10 2 0 7 -4 10 -10z"/>
<path d="M1618 2553 c-2 -5 -1 -24 3 -43 l6 -35 2 43 c1 39 -3 52 -11 35z"/>
<path d="M1927 2527 c-3 -8 1 -14 8 -14 7 0 11 6 8 14 -3 7 -6 13 -8 13 -2 0
-5 -6 -8 -13z"/>
<path d="M2091 2524 c0 -11 3 -14 6 -6 3 7 2 16 -1 19 -3 4 -6 -2 -5 -13z"/>
<path d="M1973 2518 c-18 -23 -22 -47 -10 -54 7 -4 9 -4 5 1 -4 4 -1 20 8 36
15 30 14 38 -3 17z"/>
<path d="M2126 2515 c-3 -9 -6 -22 -5 -28 0 -7 5 -1 10 12 5 13 8 26 5 28 -2
2 -6 -3 -10 -12z"/>
<path d="M2191 2507 c-8 -10 -7 -14 2 -14 8 0 14 6 14 14 0 7 -1 13 -2 13 -2
0 -8 -6 -14 -13z"/>
<path d="M1652 2485 c0 -16 2 -22 5 -12 2 9 2 23 0 30 -3 6 -5 -1 -5 -18z"/>
<path d="M1910 2492 c0 -5 7 -9 15 -9 8 0 12 4 9 9 -3 4 -9 8 -15 8 -5 0 -9
-4 -9 -8z"/>
<path d="M1582 2470 c0 -14 2 -19 5 -12 2 6 2 18 0 25 -3 6 -5 1 -5 -13z"/>
<path d="M1611 2454 c0 -11 3 -14 6 -6 3 7 2 16 -1 19 -3 4 -6 -2 -5 -13z"/>
<path d="M1900 2448 c0 -4 9 -7 20 -5 29 5 33 13 5 13 -14 0 -25 -4 -25 -8z"/>
<path d="M1450 2438 c0 -9 5 -20 10 -23 13 -8 13 5 0 25 -8 13 -10 13 -10 -2z"/>
<path d="M1640 2426 c0 -14 -5 -28 -10 -31 -6 -3 -7 -17 -4 -30 3 -13 -1 -38
-9 -55 -9 -16 -12 -30 -7 -30 5 0 13 15 19 33 13 41 25 137 17 137 -3 0 -6
-11 -6 -24z"/>
<path d="M2136 2431 c-4 -5 -2 -12 3 -15 5 -4 12 -2 15 3 4 5 2 12 -3 15 -5 4
-12 2 -15 -3z"/>
<path d="M2245 2410 c-4 -17 -10 -28 -15 -25 -14 9 -22 -33 -10 -55 6 -11 18
-19 28 -19 16 1 16 2 0 6 -21 5 -25 33 -5 33 8 0 13 16 15 45 2 52 -3 58 -13
15z"/>
<path d="M1601 2414 c0 -11 3 -14 6 -6 3 7 2 16 -1 19 -3 4 -6 -2 -5 -13z"/>
<path d="M1888 2405 c-4 -20 -2 -23 8 -14 7 6 10 17 7 25 -7 20 -10 18 -15
-11z"/>
<path d="M1920 2409 c0 -5 5 -7 10 -4 6 3 10 8 10 11 0 2 -4 4 -10 4 -5 0 -10
-5 -10 -11z"/>
<path d="M1440 2401 c0 -5 5 -13 10 -16 6 -3 10 -2 10 4 0 5 -4 13 -10 16 -5
3 -10 2 -10 -4z"/>
<path d="M1997 2344 c-37 -75 -30 -77 11 -3 18 32 29 59 24 59 -4 0 -20 -25
-35 -56z"/>
<path d="M2114 2382 c3 -5 0 -13 -6 -15 -9 -4 -10 -6 -1 -6 17 -1 25 16 12 25
-7 4 -9 3 -5 -4z"/>
<path d="M1436 2355 c4 -8 8 -15 10 -15 2 0 4 7 4 15 0 8 -4 15 -10 15 -5 0
-7 -7 -4 -15z"/>
<path d="M1581 2351 c-1 -7 -7 -11 -16 -8 -8 4 -17 2 -20 -3 -4 -6 1 -10 9
-10 9 0 16 -6 16 -12 0 -7 5 -5 11 5 6 10 8 23 5 30 -3 8 -5 8 -5 -2z"/>
<path d="M1873 2340 c3 -10 1 -21 -4 -24 -5 -2 -4 -3 2 -2 15 3 20 46 6 46 -5
0 -7 -9 -4 -20z"/>
<path d="M2135 2350 c3 -5 8 -10 11 -10 2 0 4 5 4 10 0 6 -5 10 -11 10 -5 0
-7 -4 -4 -10z"/>
<path d="M2060 2331 c-13 -25 -13 -34 1 -25 7 4 10 1 7 -7 -3 -8 -11 -13 -17
-11 -10 2 -15 -19 -14 -55 1 -7 -3 -11 -7 -8 -4 3 -14 -3 -21 -13 -13 -16 -13
-16 5 -2 18 14 19 13 12 -5 -6 -16 -1 -14 23 9 26 25 33 46 15 46 -3 0 -3 -4
1 -9 3 -5 1 -12 -4 -15 -11 -7 -9 13 4 33 7 13 15 81 8 81 -1 0 -7 -9 -13 -19z"/>
<path d="M2095 2339 c-4 -6 -5 -12 -2 -15 2 -3 7 2 10 11 7 17 1 20 -8 4z"/>
<path d="M1390 2325 c0 -8 5 -15 10 -15 6 0 10 7 10 15 0 8 -4 15 -10 15 -5 0
-10 -7 -10 -15z"/>
<path d="M1895 2299 c-4 -6 -5 -12 -2 -15 2 -3 7 2 10 11 7 17 1 20 -8 4z"/>
<path d="M2095 2301 c-3 -5 -2 -12 3 -15 5 -3 9 1 9 9 0 17 -3 19 -12 6z"/>
<path d="M2212 2293 c2 -12 11 -17 23 -15 36 7 35 15 -3 27 -20 6 -23 4 -20
-12z"/>
<path d="M1555 2290 c-3 -5 -1 -10 6 -10 7 0 9 -10 7 -25 -6 -28 7 -25 15 4 6
23 -17 49 -28 31z"/>
<path d="M1475 2280 c3 -5 8 -10 11 -10 2 0 4 5 4 10 0 6 -5 10 -11 10 -5 0
-7 -4 -4 -10z"/>
<path d="M1833 2278 c-6 -7 -13 -20 -17 -28 -4 -8 0 -5 10 7 14 20 18 21 31 8
17 -17 33 -20 33 -5 0 6 -6 9 -12 8 -7 -2 -12 3 -10 10 1 6 -4 12 -12 12 -7 0
-18 -6 -23 -12z"/>
<path d="M1536 2261 c-4 -7 -5 -15 -2 -18 9 -9 19 4 14 18 -4 11 -6 11 -12 0z"/>
<path d="M1859 2213 c-13 -16 -12 -17 4 -4 9 7 17 15 17 17 0 8 -8 3 -21 -13z"/>
<path d="M2049 2173 c-13 -16 -12 -17 4 -4 16 13 21 21 13 21 -2 0 -10 -8 -17
-17z"/>
<path d="M2235 2149 c-11 -16 -1 -19 13 -3 7 8 8 14 3 14 -5 0 -13 -5 -16 -11z"/>
<path d="M2151 2114 c0 -11 3 -14 6 -6 3 7 2 16 -1 19 -3 4 -6 -2 -5 -13z"/>
<path d="M2245 2100 c3 -5 8 -10 11 -10 2 0 4 5 4 10 0 6 -5 10 -11 10 -5 0
-7 -4 -4 -10z"/>
<path d="M1945 2070 c3 -5 8 -10 11 -10 2 0 4 5 4 10 0 6 -5 10 -11 10 -5 0
-7 -4 -4 -10z"/>
<path d="M1910 2055 c-7 -9 -11 -17 -9 -20 3 -2 10 5 17 15 14 24 10 26 -8 5z"/>
<path d="M1500 2003 c0 -6 -3 -18 -6 -27 -3 -9 -1 -16 5 -16 17 0 25 30 12 43
-8 8 -11 8 -11 0z"/>
<path d="M1400 1980 c0 -15 7 -20 26 -20 14 0 23 -4 20 -9 -3 -4 6 -13 20 -20
32 -14 35 -14 28 3 -3 8 -12 12 -21 9 -12 -5 -14 -1 -8 17 8 26 -7 40 -42 40
-16 0 -23 -6 -23 -20z"/>
<path d="M2088 1969 c-11 -18 -22 -27 -29 -23 -8 5 -9 3 -5 -5 9 -14 40 9 57
41 17 31 -5 19 -23 -13z"/>
<path d="M1580 1966 c0 -2 8 -10 18 -17 15 -13 16 -12 3 4 -13 16 -21 21 -21
13z"/>
<path d="M1625 1934 c-11 -17 -12 -25 -4 -22 6 2 16 14 20 26 11 29 5 28 -16
-4z"/>
<path d="M1360 1946 c0 -2 6 -9 13 -15 10 -8 14 -7 14 4 0 8 -6 15 -14 15 -7
0 -13 -2 -13 -4z"/>
<path d="M2023 1934 c-17 -18 -16 -23 5 -20 9 2 16 6 15 10 -5 21 -9 23 -20
10z"/>
<path d="M1409 1923 c-13 -16 -12 -17 4 -4 9 7 17 15 17 17 0 8 -8 3 -21 -13z"/>
<path d="M1969 1903 c15 -30 14 -46 -4 -39 -12 4 -15 -3 -15 -29 0 -48 15 -44
32 10 14 42 14 46 -5 62 -19 18 -20 17 -8 -4z"/>
<path d="M1741 1891 c-7 -5 -9 -11 -4 -14 5 -3 15 -2 22 2 7 5 9 11 4 14 -5 3
-15 2 -22 -2z"/>
<path d="M1493 1860 c-9 -23 -18 -30 -40 -31 l-28 -1 30 -7 c17 -4 35 -4 40 0
6 3 18 5 28 4 9 -2 15 1 11 6 -3 5 -12 9 -20 9 -10 0 -13 7 -8 25 9 34 1 31
-13 -5z"/>
<path d="M1885 1879 c-11 -4 -14 -8 -7 -8 6 -1 12 -4 12 -8 0 -12 -82 -98 -94
-99 -6 0 -17 -2 -23 -2 -7 -1 -13 -10 -13 -19 0 -15 1 -15 13 2 8 10 18 15 24
12 14 -9 53 21 66 52 l11 26 4 -28 c4 -32 -24 -71 -45 -63 -11 5 -11 1 -2 -16
l12 -22 8 21 c4 11 13 24 19 28 17 10 8 -56 -12 -90 -20 -33 -23 -49 -9 -41 5
4 7 -12 4 -36 -3 -25 -2 -39 3 -35 5 5 9 16 10 25 3 49 5 54 18 49 7 -3 20 3
29 13 9 11 11 20 5 22 -6 2 -4 24 7 60 14 50 19 166 7 153 -3 -3 -10 -1 -16 4
-6 5 -20 5 -31 0z m26 -46 c-12 -20 -14 -14 -5 12 4 9 9 14 11 11 3 -2 0 -13
-6 -23z m4 -61 c-2 -9 -4 -30 -5 -47 0 -26 -2 -28 -11 -12 -6 10 -7 26 -3 35
4 9 6 25 5 36 -2 10 2 15 7 12 6 -3 9 -14 7 -24z m-18 -112 c-1 -19 -17 -27
-30 -14 -9 9 12 46 23 39 5 -3 8 -14 7 -25z"/>
<path d="M1430 1868 c0 -4 6 -8 14 -8 8 0 17 4 20 8 2 4 -4 8 -15 8 -10 0 -19
-4 -19 -8z"/>
<path d="M1575 1859 c-4 -6 -5 -12 -2 -15 2 -3 7 2 10 11 7 17 1 20 -8 4z"/>
<path d="M1653 1835 c0 -22 2 -30 4 -17 2 12 2 30 0 40 -3 9 -5 -1 -4 -23z"/>
<path d="M1720 1860 c-8 -5 -7 -9 3 -13 9 -3 20 0 26 7 8 9 7 13 -4 13 -8 0
-19 -3 -25 -7z"/>
<path d="M1400 1840 c0 -5 5 -10 11 -10 5 0 7 5 4 10 -3 6 -8 10 -11 10 -2 0
-4 -4 -4 -10z"/>
<path d="M1540 1846 c0 -2 8 -10 18 -17 15 -13 16 -12 3 4 -13 16 -21 21 -21
13z"/>
<path d="M1760 1840 c-13 -8 -12 -10 3 -10 9 0 17 5 17 10 0 12 -1 12 -20 0z"/>
<path d="M1599 1838 c-6 -19 -6 -38 0 -38 10 0 31 22 31 32 0 7 -29 12 -31 6z"/>
<path d="M1674 1811 c1 -16 4 -32 7 -35 3 -4 6 7 5 23 -2 39 -12 49 -12 12z"/>
<path d="M1727 1809 c-4 -14 -1 -28 6 -34 6 -5 8 -6 4 -1 -4 5 -3 14 3 20 5 7
5 18 1 25 -6 9 -10 6 -14 -10z"/>
<path d="M1997 1823 c-4 -3 -7 -11 -7 -17 0 -6 5 -5 12 2 6 6 9 14 7 17 -3 3
-9 2 -12 -2z"/>
<path d="M1802 1800 c-7 -11 -8 -20 -3 -20 9 0 24 30 18 36 -1 2 -8 -6 -15
-16z"/>
<path d="M1543 1789 c-2 -23 3 -25 10 -4 4 8 3 16 -1 19 -4 3 -9 -4 -9 -15z"/>
<path d="M1701 1794 c0 -11 3 -14 6 -6 3 7 2 16 -1 19 -3 4 -6 -2 -5 -13z"/>
<path d="M1313 1793 c9 -2 23 -2 30 0 6 3 -1 5 -18 5 -16 0 -22 -2 -12 -5z"/>
<path d="M1378 1793 c7 -3 16 -2 19 1 4 3 -2 6 -13 5 -11 0 -14 -3 -6 -6z"/>
<path d="M1465 1791 c-3 -5 6 -22 21 -38 l26 -28 -21 31 c-11 17 -18 34 -14
38 3 3 4 6 0 6 -3 0 -8 -4 -12 -9z"/>
<path d="M1611 1784 c-12 -14 -11 -16 4 -12 10 1 20 9 23 16 5 17 -10 15 -27
-4z"/>
<path d="M2249 1768 c-5 -18 -6 -38 -1 -34 7 8 12 36 6 36 -2 0 -4 -1 -5 -2z"/>
<path d="M1693 1753 c9 -2 25 -2 35 0 9 3 1 5 -18 5 -19 0 -27 -2 -17 -5z"/>
<path d="M1390 1739 c-13 -8 -13 -10 0 -19 8 -5 21 -10 29 -10 11 0 11 3 0 18
-7 9 -14 18 -14 19 0 1 -7 -2 -15 -8z"/>
<path d="M1625 1740 c-3 -5 -1 -10 4 -10 6 0 11 5 11 10 0 6 -2 10 -4 10 -3 0
-8 -4 -11 -10z"/>
<path d="M1305 1730 c-3 -5 -1 -10 4 -10 6 0 11 5 11 10 0 6 -2 10 -4 10 -3 0
-8 -4 -11 -10z"/>
<path d="M1350 1730 c0 -5 5 -10 10 -10 6 0 10 5 10 10 0 6 -4 10 -10 10 -5 0
-10 -4 -10 -10z"/>
<path d="M1671 1724 c0 -11 3 -14 6 -6 3 7 2 16 -1 19 -3 4 -6 -2 -5 -13z"/>
<path d="M1476 1715 c-3 -8 -1 -15 4 -15 6 0 10 7 10 15 0 8 -2 15 -4 15 -2 0
-6 -7 -10 -15z"/>
<path d="M1580 1720 c-23 -8 -23 -8 7 -7 17 1 29 5 27 9 -3 4 -6 8 -7 7 -1 -1
-13 -5 -27 -9z"/>
<path d="M1518 1713 c6 -2 18 -2 25 0 6 3 1 5 -13 5 -14 0 -19 -2 -12 -5z"/>
<path d="M1932 1698 c-18 -18 -14 -28 11 -27 17 1 18 2 4 6 -14 4 -16 8 -6 19
14 17 8 19 -9 2z"/>
<path d="M1795 1660 c-3 -5 -1 -10 4 -10 6 0 11 5 11 10 0 6 -2 10 -4 10 -3 0
-8 -4 -11 -10z"/>
<path d="M1991 1604 c0 -11 3 -14 6 -6 3 7 2 16 -1 19 -3 4 -6 -2 -5 -13z"/>
<path d="M2009 1598 c0 -13 -3 -52 -7 -88 -4 -36 -7 -96 -7 -133 1 -57 -2 -68
-15 -64 -12 3 -14 -4 -12 -35 3 -26 8 -38 17 -34 9 3 11 -7 7 -42 -7 -69 -22
-88 -17 -22 3 40 2 48 -4 30 -13 -36 -13 -110 0 -110 5 0 8 4 5 9 -3 4 3 16
14 26 10 9 16 23 13 31 -3 10 2 14 18 14 22 0 22 0 3 14 -19 14 -19 14 1 13
15 -2 20 4 20 28 0 17 4 36 8 43 6 8 0 15 -17 22 -14 5 -26 12 -26 15 0 4 5 3
11 -1 7 -4 9 11 4 52 -9 74 -18 86 -14 17 2 -28 0 -49 -5 -46 -13 8 0 134 14
143 8 5 9 13 4 21 -7 13 -7 58 1 101 2 10 0 18 -6 18 -5 0 -9 -10 -10 -22z
m21 -318 c0 -5 -5 -10 -11 -10 -5 0 -7 5 -4 10 3 6 8 10 11 10 2 0 4 -4 4 -10z
m0 -27 c0 -5 -5 -15 -10 -23 -8 -12 -10 -11 -10 8 0 12 5 22 10 22 6 0 10 -3
10 -7z"/>
<path d="M1660 1596 c0 -23 33 -29 47 -10 7 10 13 12 13 6 0 -7 7 -12 15 -12
8 0 15 5 15 10 0 6 5 10 11 10 5 0 8 -4 5 -9 -3 -5 6 -11 19 -14 14 -2 28 0
31 4 12 21 -12 29 -82 29 -57 0 -74 -3 -74 -14z"/>
<path d="M935 1577 c11 -9 15 -19 10 -28 -6 -11 -5 -12 5 -2 11 10 11 15 0 28
-7 8 -17 15 -23 15 -6 0 -3 -6 8 -13z"/>
<path d="M2040 1572 c0 -10 7 -19 15 -19 10 0 12 4 5 12 -5 7 -7 15 -3 18 3 4
1 7 -5 7 -7 0 -12 -8 -12 -18z"/>
<path d="M2195 1570 c-13 -14 -15 -26 -10 -47 5 -15 9 -32 9 -38 2 -10 54 -10
64 0 12 11 -8 17 -22 6 -12 -10 -18 -7 -30 18 -17 32 -23 67 -7 43 6 -10 10
-7 13 12 6 31 6 31 -17 6z"/>
<path d="M976 1545 c4 -8 8 -15 10 -15 2 0 4 7 4 15 0 8 -4 15 -10 15 -5 0 -7
-7 -4 -15z"/>
<path d="M1067 1503 c3 -7 6 -13 8 -13 2 0 5 6 8 13 3 8 -1 14 -8 14 -7 0 -11
-6 -8 -14z"/>
<path d="M1472 1466 c7 -8 15 -12 17 -11 5 6 -10 25 -20 25 -5 0 -4 -6 3 -14z"/>
<path d="M1353 1430 c0 -25 2 -35 4 -22 2 12 2 32 0 45 -2 12 -4 2 -4 -23z"/>
<path d="M1852 1445 c0 -16 2 -22 5 -12 2 9 2 23 0 30 -3 6 -5 -1 -5 -18z"/>
<path d="M1407 1443 c-12 -12 -7 -23 11 -23 13 0 14 2 3 9 -11 7 -11 9 0 14 8
3 9 6 3 6 -6 1 -14 -2 -17 -6z"/>
<path d="M2041 1434 c0 -11 3 -14 6 -6 3 7 2 16 -1 19 -3 4 -6 -2 -5 -13z"/>
<path d="M2060 1409 c0 -12 6 -16 20 -12 11 3 23 9 26 14 3 5 -3 6 -12 2 -10
-4 -15 -2 -11 4 3 5 0 10 -8 10 -8 0 -15 -8 -15 -18z"/>
<path d="M1253 1355 c0 -27 2 -38 4 -22 2 15 2 37 0 50 -2 12 -4 0 -4 -28z"/>
<path d="M1732 1366 l11 -33 31 15 c40 19 47 26 19 19 -13 -3 -25 -1 -29 4 -3
5 -13 13 -24 19 -17 9 -17 7 -8 -24z"/>
<path d="M1140 1362 c0 -18 4 -32 9 -32 5 0 8 11 7 25 -4 38 -16 43 -16 7z"/>
<path d="M1849 1343 c-3 -23 -1 -39 2 -37 11 6 15 -27 11 -103 -4 -71 -4 -73
-30 -73 -20 0 -23 -3 -13 -9 8 -5 21 -7 29 -3 10 3 13 0 10 -9 -2 -7 -15 -16
-29 -20 -24 -7 -24 -7 3 -8 32 -1 35 6 43 114 5 56 2 97 -8 135 l-14 55 -4
-42z"/>
<path d="M1871 1364 c0 -11 3 -14 6 -6 3 7 2 16 -1 19 -3 4 -6 -2 -5 -13z"/>
<path d="M1961 1354 c0 -11 3 -14 6 -6 3 7 2 16 -1 19 -3 4 -6 -2 -5 -13z"/>
<path d="M1808 1323 c5 -21 7 -23 10 -9 2 10 0 22 -6 28 -6 6 -7 0 -4 -19z"/>
<path d="M740 1311 c0 -5 -12 -12 -27 -14 -16 -2 -7 -4 20 -4 32 0 47 4 47 14
0 7 -9 13 -20 13 -11 0 -20 -4 -20 -9z"/>
<path d="M2160 1311 c0 -6 4 -13 10 -16 6 -3 7 1 4 9 -7 18 -14 21 -14 7z"/>
<path d="M1352 1280 c0 -19 2 -27 5 -17 2 9 2 25 0 35 -3 9 -5 1 -5 -18z"/>
<path d="M1740 1302 c0 -13 61 -32 75 -23 6 3 -3 8 -20 9 -16 2 -36 8 -42 14
-9 7 -13 7 -13 0z"/>
<path d="M798 1293 c7 -3 16 -2 19 1 4 3 -2 6 -13 5 -11 0 -14 -3 -6 -6z"/>
<path d="M497 1260 c3 -11 7 -20 8 -20 1 0 5 9 8 20 3 12 0 20 -8 20 -8 0 -11
-8 -8 -20z"/>
<path d="M1611 1266 c0 -6 4 -20 9 -31 7 -18 9 -18 15 -3 5 13 12 15 31 8 37
-15 28 -4 -16 18 -24 12 -40 15 -39 8z"/>
<path d="M2163 1215 c0 -63 1 -65 7 -25 l7 45 1 -52 c1 -29 -2 -53 -7 -53 -6
0 -9 -18 -9 -40 0 -22 4 -37 9 -34 5 3 7 9 4 14 -3 5 -1 11 5 15 6 4 9 47 9
103 -1 53 -4 86 -7 72 l-5 -25 -7 25 c-4 15 -7 -2 -7 -45z"/>
<path d="M403 1255 c-3 -9 -3 -18 -1 -21 3 -3 8 4 11 16 6 23 -1 27 -10 5z"/>
<path d="M2109 1220 c-1 -19 -1 -41 0 -47 1 -8 -5 -10 -16 -7 -13 4 -15 3 -5
-4 8 -5 13 -13 12 -18 -1 -5 4 -10 12 -12 9 -2 8 0 -2 7 -8 6 -10 11 -4 11 14
0 23 75 12 93 -5 7 -8 -3 -9 -23z"/>
<path d="M2215 1240 c3 -5 1 -10 -4 -10 -13 0 -14 -89 -2 -109 5 -8 16 -11 25
-8 12 5 16 19 14 64 l-1 58 -6 -55 c-3 -30 -10 -54 -16 -52 -13 3 -8 92 7 109
8 10 6 13 -6 13 -10 0 -14 -4 -11 -10z"/>
<path d="M619 1221 c-3 -7 -18 -13 -34 -14 -17 -2 -36 -6 -43 -10 -8 -5 -12
-2 -12 8 0 23 -24 13 -28 -12 -2 -11 4 -27 12 -36 23 -22 20 -80 -4 -102 -25
-23 -43 -88 -35 -125 4 -16 16 -41 27 -55 11 -14 17 -29 14 -32 -3 -4 3 -17
15 -29 l22 -23 -29 -25 c-16 -14 -67 -49 -114 -78 l-85 -53 -3 -318 -2 -317
485 0 486 0 -3 125 -3 125 40 9 40 9 -37 1 c-38 1 -38 1 -39 46 -1 25 -2 51
-3 58 -1 7 -18 13 -46 14 -25 0 -81 9 -124 20 -75 17 -84 22 -148 84 -51 49
-68 72 -68 93 0 46 -31 168 -55 221 -13 28 -27 63 -30 78 -8 29 -16 32 -46 17
-15 -8 -19 -7 -19 4 0 39 31 63 43 34 4 -9 6 -10 6 -1 1 6 -6 18 -14 27 -22
22 -19 26 20 26 24 0 35 5 35 15 0 9 -9 15 -25 15 -14 0 -25 5 -25 10 0 6 11
10 23 10 14 0 24 6 24 15 0 8 -4 15 -9 15 -4 0 -8 -6 -8 -12 0 -10 -2 -10 -9
0 -8 13 -104 12 -118 -2 -3 -3 -19 -6 -35 -6 -25 0 -28 4 -28 30 0 18 6 33 15
36 20 8 17 65 -5 94 -11 14 -19 18 -21 11z m-31 -120 c23 -19 29 -41 12 -41
-5 0 -10 -7 -10 -16 0 -14 -3 -14 -15 -4 -19 15 -28 9 -19 -14 7 -18 84 -24
84 -6 0 6 7 10 16 10 24 0 11 -23 -15 -27 -43 -6 -51 -16 -35 -38 14 -19 16
-19 25 -2 7 12 17 16 31 11 17 -5 20 -3 15 10 -4 11 -3 15 4 10 7 -4 9 -24 5
-54 -10 -74 -24 -105 -54 -118 -25 -11 -25 -11 -3 -7 22 4 23 2 9 -12 -19 -19
-62 -11 -98 18 l-25 20 32 -15 c46 -23 51 -20 12 7 -54 36 -64 62 -49 130 6
31 15 55 20 52 4 -3 7 1 7 8 -1 11 24 97 28 97 1 0 12 -8 23 -19z m143 -143
c-3 -21 -6 -26 -9 -15 -3 17 3 47 11 47 2 0 1 -15 -2 -32z m-21 -75 c-11 -17
-11 -17 -6 0 3 10 6 24 7 30 0 9 2 9 5 0 3 -7 0 -20 -6 -30z m-54 -98 c-23
-17 -74 -19 -96 -4 -11 7 -5 8 22 3 20 -3 45 -1 55 5 27 16 41 13 19 -4z"/>
<path d="M791 1204 c0 -11 3 -14 6 -6 3 7 2 16 -1 19 -3 4 -6 -2 -5 -13z"/>
<path d="M1412 1174 c10 -10 20 -16 22 -13 3 3 -5 11 -17 18 -21 13 -21 12 -5
-5z"/>
<path d="M1620 1179 c0 -5 9 -9 20 -9 11 0 20 2 20 4 0 2 -9 6 -20 9 -11 3
-20 1 -20 -4z"/>
<path d="M1687 1169 c4 -13 8 -18 11 -10 2 7 -1 18 -6 23 -8 8 -9 4 -5 -13z"/>
<path d="M1230 1159 c0 -5 5 -7 10 -4 6 3 10 8 10 11 0 2 -4 4 -10 4 -5 0 -10
-5 -10 -11z"/>
<path d="M1670 1155 c0 -8 -3 -15 -7 -15 -5 0 -21 -13 -38 -28 -16 -16 -33
-29 -38 -29 -20 -3 -29 -11 -10 -9 13 1 37 15 53 31 24 23 33 27 39 16 6 -9
11 -10 15 -2 4 6 3 11 -2 11 -6 0 -8 9 -5 20 3 11 3 20 -1 20 -3 0 -6 -7 -6
-15z"/>
<path d="M911 1134 c0 -11 3 -14 6 -6 3 7 2 16 -1 19 -3 4 -6 -2 -5 -13z"/>
<path d="M993 1110 c0 -22 4 -40 9 -40 4 0 8 18 8 40 0 22 -4 40 -8 40 -5 0
-9 -18 -9 -40z"/>
<path d="M1798 1143 c12 -2 30 -2 40 0 9 3 -1 5 -23 4 -22 0 -30 -2 -17 -4z"/>
<path d="M1449 1123 c14 -28 17 -28 25 -6 4 10 4 14 0 10 -4 -4 -14 -1 -22 6
-13 10 -14 9 -3 -10z"/>
<path d="M2010 1120 c0 -11 4 -20 9 -20 5 0 7 9 4 20 -3 11 -7 20 -9 20 -2 0
-4 -9 -4 -20z"/>
<path d="M1423 1106 c6 -13 16 -23 23 -23 9 0 9 5 1 18 -18 29 -37 32 -24 5z"/>
<path d="M1740 1107 c0 -23 -3 -24 -55 -23 -81 2 -67 -12 16 -16 72 -3 109 5
76 18 -9 3 -17 12 -17 19 0 8 -4 17 -10 20 -6 3 -10 -4 -10 -18z"/>
<path d="M1791 1114 c0 -11 3 -14 6 -6 3 7 2 16 -1 19 -3 4 -6 -2 -5 -13z"/>
<path d="M1050 1095 c0 -8 4 -15 10 -15 5 0 7 7 4 15 -4 8 -8 15 -10 15 -2 0
-4 -7 -4 -15z"/>
<path d="M2040 1100 c0 -6 7 -10 15 -10 8 0 15 2 15 4 0 2 -7 6 -15 10 -8 3
-15 1 -15 -4z"/>
<path d="M2095 1101 c3 -6 -1 -13 -8 -18 -8 -4 -16 -20 -19 -35 -5 -27 6 -38
38 -38 12 0 12 2 2 14 -9 10 -15 11 -20 2 -5 -6 -8 0 -8 15 0 29 21 53 36 41
4 -4 2 1 -5 11 -14 18 -26 24 -16 8z"/>
<path d="M1317 1089 c7 -7 15 -10 18 -7 3 3 -2 9 -12 12 -14 6 -15 5 -6 -5z"/>
<path d="M1991 1093 c-1 -7 -8 -10 -18 -6 -10 3 -15 2 -10 -2 4 -5 0 -17 -10
-27 -9 -10 -12 -18 -7 -18 5 0 -2 -9 -15 -19 -14 -11 -20 -21 -13 -25 6 -3 17
1 26 9 8 9 33 16 55 18 31 2 37 5 28 15 -8 10 -7 12 2 10 8 -2 15 4 16 13 2
12 -3 15 -20 11 -16 -3 -25 1 -28 15 -3 10 -5 13 -6 6z m-21 -49 c0 -8 -5 -12
-10 -9 -6 4 -8 11 -5 16 9 14 15 11 15 -7z"/>
<path d="M1500 1080 l-35 -7 38 -2 c20 0 37 4 37 9 0 6 -1 9 -2 9 -2 -1 -19
-5 -38 -9z"/>
<path d="M852 1055 c0 -29 16 -75 17 -52 1 10 6 15 11 12 6 -3 10 -1 10 4 0 6
-4 11 -8 11 -5 0 -14 10 -20 23 -10 20 -11 20 -10 2z"/>
<path d="M1630 1029 c0 -5 5 -7 10 -4 6 3 10 8 10 11 0 2 -4 4 -10 4 -5 0 -10
-5 -10 -11z"/>
<path d="M960 1005 c0 -8 4 -15 10 -15 5 0 7 7 4 15 -4 8 -8 15 -10 15 -2 0
-4 -7 -4 -15z"/>
<path d="M1738 1013 c7 -3 16 -2 19 1 4 3 -2 6 -13 5 -11 0 -14 -3 -6 -6z"/>
<path d="M1865 1010 c-3 -5 1 -10 9 -10 9 0 16 5 16 10 0 6 -4 10 -9 10 -6 0
-13 -4 -16 -10z"/>
<path d="M1330 981 c0 -6 -6 -11 -14 -11 -30 0 -74 -103 -55 -127 17 -20 24
-7 20 39 -2 27 1 38 8 34 6 -4 20 2 32 12 11 11 35 23 52 26 28 6 30 8 14 17
-10 6 -21 8 -24 5 -4 -3 -12 -1 -20 5 -9 9 -13 8 -13 0z"/>
<path d="M1945 970 c3 -5 8 -10 11 -10 2 0 4 5 4 10 0 6 -5 10 -11 10 -5 0 -7
-4 -4 -10z"/>
<path d="M1850 895 c6 -8 8 -20 4 -26 -5 -8 -3 -9 5 -5 7 5 22 0 34 -10 12
-10 6 -2 -12 19 -34 36 -56 52 -31 22z"/>
<path d="M1997 895 c-4 -8 -2 -17 4 -20 5 -4 12 1 15 9 3 9 11 13 17 9 6 -3 7
-1 3 5 -10 17 -33 15 -39 -3z"/>
<path d="M2040 869 c0 -5 -3 -8 -8 -5 -8 5 -5 -155 3 -163 3 -2 5 34 5 80 0
46 4 80 8 74 6 -9 32 -19 32 -12 0 1 -9 10 -20 20 -11 9 -20 12 -20 6z"/>
<path d="M1673 845 c0 -8 4 -12 9 -9 5 3 6 10 3 15 -9 13 -12 11 -12 -6z"/>
<path d="M1152 810 c-18 -11 -44 -20 -57 -20 -35 0 -31 -19 5 -27 28 -5 53
-23 32 -23 -4 0 -19 -25 -31 -55 -21 -50 -27 -56 -72 -72 -44 -16 -65 -33 -40
-33 5 0 11 -8 13 -17 2 -12 17 -2 57 40 29 31 60 65 68 77 9 13 21 19 30 16 9
-4 23 2 32 12 16 19 46 23 70 8 7 -5 18 -3 24 3 6 6 8 11 4 11 -4 0 -3 9 3 21
13 23 51 24 85 2 11 -7 26 -13 35 -13 8 1 2 7 -15 14 -30 12 -29 13 18 10 28
-1 52 3 60 10 7 7 18 11 25 8 6 -2 12 4 12 13 0 12 -4 14 -19 5 -15 -7 -23 -6
-34 5 -13 13 -16 13 -21 -1 -3 -8 -2 -12 3 -9 5 3 12 1 16 -5 3 -5 -1 -10 -9
-10 -26 0 -65 22 -69 39 -4 14 -5 14 -6 -1 -1 -15 -5 -16 -27 -8 -34 13 -37
13 -31 -4 10 -25 -17 -24 -36 1 -23 29 -79 31 -125 3z"/>
<path d="M2060 820 c0 -5 7 -7 15 -4 8 4 15 8 15 10 0 2 -7 4 -15 4 -8 0 -15
-4 -15 -10z"/>
<path d="M1986 798 c10 -14 21 -24 23 -22 3 3 -6 15 -18 27 l-24 22 19 -27z"/>
<path d="M2109 798 c7 -10 23 -17 35 -17 20 1 20 2 1 6 -11 3 -27 10 -35 17
-13 10 -13 9 -1 -6z"/>
<path d="M1856 761 c-7 -10 29 -44 51 -47 10 -2 6 7 -13 27 -31 32 -31 32 -38
20z m35 -28 c13 -16 12 -17 -3 -4 -17 13 -22 21 -14 21 2 0 10 -8 17 -17z"/>
<path d="M1772 744 c10 -10 20 -15 24 -12 3 4 -5 12 -18 18 -22 12 -22 12 -6
-6z"/>
<path d="M2214 744 c3 -7 -1 -17 -9 -24 -20 -17 -19 -26 5 -26 26 0 32 20 14
43 -9 10 -13 13 -10 7z"/>
<path d="M1325 720 c3 -5 10 -10 16 -10 5 0 9 5 9 10 0 6 -7 10 -16 10 -8 0
-12 -4 -9 -10z"/>
<path d="M1760 701 c0 -6 4 -13 10 -16 6 -3 7 1 4 9 -7 18 -14 21 -14 7z"/>
<path d="M1536 683 c-6 -14 -5 -15 5 -6 7 7 10 15 7 18 -3 3 -9 -2 -12 -12z"/>
<path d="M1256 681 c-3 -5 1 -14 9 -21 13 -10 15 -9 15 9 0 21 -14 28 -24 12z"/>
<path d="M1947 664 c6 -17 5 -18 -12 -4 -17 14 -17 14 -4 -7 7 -12 16 -19 19
-15 3 4 9 9 13 13 4 3 1 12 -8 19 -13 11 -14 10 -8 -6z"/>
<path d="M2016 664 c-3 -7 2 -10 15 -7 22 6 26 20 4 20 -8 0 -16 -6 -19 -13z"/>
<path d="M1824 650 c0 -13 4 -16 10 -10 7 7 7 13 0 20 -6 6 -10 3 -10 -10z"/>
<path d="M1556 648 c3 -5 10 -6 15 -3 13 9 11 12 -6 12 -8 0 -12 -4 -9 -9z"/>
<path d="M1625 578 c-13 -29 -22 -54 -20 -57 6 -6 7 -5 32 57 27 67 19 68 -12
0z"/>
<path d="M2006 599 c-15 -18 -20 -19 -27 -8 -5 8 -9 10 -9 4 0 -18 15 -34 26
-27 11 7 38 52 32 52 -2 0 -12 -10 -22 -21z"/>
<path d="M1510 584 c0 -17 17 -36 24 -26 3 5 -1 15 -9 22 -8 7 -15 9 -15 4z"/>
<path d="M1496 545 c-3 -9 -10 -13 -16 -10 -6 4 -7 -1 -3 -11 5 -14 3 -16 -11
-11 -10 4 -15 3 -11 -3 3 -5 -8 -16 -24 -25 -22 -11 -32 -12 -37 -3 -4 6 -3 8
3 5 6 -4 18 -1 27 6 15 11 15 14 2 32 -14 19 -15 19 -9 -5 6 -22 5 -24 -10
-11 -17 14 -21 6 -20 -36 1 -19 -15 -15 -20 5 -4 13 -5 11 -6 -5 -1 -14 -7
-23 -17 -23 -11 0 -14 6 -9 21 5 16 3 20 -6 17 -8 -3 -13 -13 -13 -22 2 -19
-7 -21 -25 -3 -10 10 -11 9 -6 -4 4 -10 1 -20 -6 -25 -7 -4 -10 -3 -5 4 4 7
-1 10 -14 7 -11 -2 -20 0 -20 5 0 4 -8 7 -17 5 -10 -1 -23 2 -30 7 -6 5 -24 8
-40 6 l-28 -4 30 -8 c17 -4 37 -11 45 -15 9 -5 38 -12 66 -15 47 -7 76 -1 148
29 15 6 17 5 11 -5 -5 -9 -4 -11 4 -6 6 4 9 11 6 16 -3 5 8 18 25 30 30 21 56
58 47 66 -2 3 -7 -2 -11 -11z"/>
<path d="M1640 548 c0 -8 5 -19 12 -26 9 -9 6 -17 -13 -35 -41 -41 -76 -60
-82 -45 -4 10 -6 10 -6 -1 -1 -23 -31 -50 -49 -45 -12 4 -11 2 2 -7 15 -9 21
-9 24 -1 3 9 9 9 24 1 15 -8 24 -7 36 4 9 8 26 17 37 20 19 4 19 5 -1 6 -12 0
-27 -6 -34 -14 -14 -17 -35 -21 -25 -5 3 6 -1 7 -9 4 -9 -3 -16 -4 -16 0 0 8
57 36 64 31 3 -3 4 -2 1 1 -2 4 13 21 34 38 38 32 41 48 14 74 -11 11 -13 11
-13 0z"/>
<path d="M1865 540 c-16 -7 -17 -9 -3 -9 9 -1 20 4 23 9 7 11 7 11 -20 0z"/>
<path d="M1930 530 c-19 -11 -31 -19 -27 -20 11 0 67 29 67 35 0 7 -1 7 -40
-15z"/>
<path d="M1683 521 c3 -12 -7 -33 -27 -57 -17 -21 -25 -35 -19 -31 7 5 21 3
32 -3 14 -7 22 -7 27 2 5 7 3 8 -5 3 -10 -6 -11 -3 -2 14 14 25 19 27 17 5 0
-9 5 -19 13 -22 8 -3 11 0 7 7 -4 6 -5 11 -2 11 2 0 11 3 20 6 9 3 16 1 16 -6
0 -6 -4 -9 -9 -6 -5 3 -14 -8 -20 -24 -5 -17 -13 -30 -17 -30 -3 0 -4 7 -1 15
4 8 2 17 -2 20 -5 2 -11 -8 -14 -24 -5 -24 -10 -28 -31 -24 -16 3 -26 1 -26
-6 0 -7 4 -10 8 -7 4 2 14 1 21 -3 10 -6 5 -17 -19 -44 -17 -20 -29 -41 -26
-46 4 -5 2 -12 -4 -16 -5 -3 -10 -1 -10 5 0 16 -43 -16 -46 -34 -1 -10 3 -13
14 -9 9 4 13 2 9 -4 -4 -6 0 -13 7 -16 14 -6 47 25 89 83 10 14 15 20 12 13
-3 -6 -1 -14 4 -17 5 -4 8 2 6 11 -2 10 -4 22 -4 27 -1 5 -10 1 -20 -8 -29
-27 -34 -2 -5 25 14 13 24 19 22 13 -2 -7 1 -11 5 -10 13 2 31 -35 20 -43 -10
-7 -12 -72 -2 -65 4 2 15 35 24 74 9 38 21 70 26 70 14 0 11 -37 -7 -78 -10
-20 -18 -41 -20 -47 -6 -25 -46 -105 -54 -110 -16 -10 -12 -25 4 -19 9 3 20
-3 28 -15 7 -12 17 -21 21 -21 5 0 -1 13 -13 30 -16 22 -19 34 -11 47 9 16 11
15 20 -9 5 -14 14 -29 20 -32 5 -3 13 -21 17 -39 4 -17 9 -26 11 -19 6 16 30
15 36 -2 3 -8 3 -24 0 -35 -4 -17 -1 -21 21 -21 25 0 26 3 22 33 -3 17 -10 75
-16 127 -6 52 -16 134 -23 182 -9 56 -10 85 -3 81 5 -4 0 9 -12 28 -13 22 -18
39 -12 45 5 5 -6 10 -28 11 -25 2 -41 -3 -49 -14 -7 -9 -13 -12 -13 -7 0 6 5
15 12 22 9 9 8 12 -5 12 -9 0 -17 5 -17 10 0 6 -5 10 -11 10 -6 0 -9 -9 -6
-19z m17 -35 c0 -2 -7 -9 -15 -16 -13 -11 -14 -10 -9 4 5 14 24 23 24 12z m37
-141 c9 -24 -1 -27 -15 -5 -8 13 -8 20 -2 20 6 0 13 -7 17 -15z m101 -210 c10
-81 8 -109 -4 -61 -5 20 -11 25 -25 21 -14 -5 -19 1 -25 30 -3 20 -15 45 -26
54 -15 15 -17 23 -9 45 11 28 31 35 31 11 0 -8 -4 -15 -10 -15 -5 0 -10 -8
-10 -17 0 -14 2 -15 9 -4 10 16 31 6 31 -15 0 -8 5 -14 10 -14 6 0 10 4 10 9
0 6 -4 13 -10 16 -12 7 -13 59 -3 95 8 27 11 15 31 -155z m-180 125 c-7 -10
-16 -16 -20 -14 -4 3 -8 -1 -8 -9 0 -26 -24 -35 -42 -16 -14 15 -15 18 -1 23
8 3 19 4 23 1 5 -3 12 0 17 7 8 13 9 19 12 39 1 8 5 8 16 -1 11 -9 12 -16 3
-30z m142 31 c0 -5 -7 -12 -16 -15 -14 -5 -15 -4 -4 9 14 17 20 19 20 6z"/>
<path d="M1561 484 c0 -11 3 -14 6 -6 3 7 2 16 -1 19 -3 4 -6 -2 -5 -13z"/>
<path d="M1836 487 c3 -10 9 -15 12 -12 3 3 0 11 -7 18 -10 9 -11 8 -5 -6z"/>
<path d="M1868 434 c-7 -10 18 -104 28 -104 5 0 -1 29 -9 50 -3 8 -7 26 -9 40
-2 15 -6 20 -10 14z"/>
<path d="M1660 400 c0 -5 7 -10 16 -10 8 0 12 5 9 10 -3 6 -10 10 -16 10 -5 0
-9 -4 -9 -10z"/>
<path d="M1600 385 c-11 -13 -10 -14 4 -9 9 3 16 10 16 15 0 13 -6 11 -20 -6z"/>
<path d="M1477 379 c7 -7 15 -10 18 -7 3 3 -2 9 -12 12 -14 6 -15 5 -6 -5z"/>
<path d="M1435 370 c-3 -5 -3 -10 2 -10 4 0 1 -5 -7 -11 -12 -8 -12 -10 -1 -7
8 2 15 12 17 21 3 19 -2 22 -11 7z"/>
<path d="M1841 354 c0 -11 3 -14 6 -6 3 7 2 16 -1 19 -3 4 -6 -2 -5 -13z"/>
<path d="M1533 338 c-10 -13 -25 -24 -33 -26 -21 -5 -33 -19 -23 -25 14 -9 80
39 80 57 0 21 -2 20 -24 -6z"/>
<path d="M1613 331 c-20 -31 1 -33 28 -3 13 14 17 21 7 14 -10 -9 -17 -9 -20
-2 -1 5 -9 1 -15 -9z"/>
<path d="M1851 314 c0 -11 3 -14 6 -6 3 7 2 16 -1 19 -3 4 -6 -2 -5 -13z"/>
<path d="M1896 295 c-3 -9 -5 -38 -5 -63 l1 -47 9 59 c9 60 7 81 -5 51z"/>
<path d="M1569 298 c0 -2 -2 -11 -4 -21 -3 -15 -1 -16 11 -6 7 6 11 15 8 20
-5 9 -13 12 -15 7z"/>
<path d="M1439 273 c-13 -16 -12 -17 4 -4 16 13 21 21 13 21 -2 0 -10 -8 -17
-17z"/>
<path d="M1862 265 c0 -16 2 -22 5 -12 2 9 2 23 0 30 -3 6 -5 -1 -5 -18z"/>
<path d="M1526 252 c-3 -5 1 -9 9 -9 8 0 15 4 15 9 0 4 -4 8 -9 8 -6 0 -12 -4
-15 -8z"/>
<path d="M1683 253 c-7 -3 -13 -10 -13 -17 0 -8 -9 -25 -20 -39 -17 -22 -18
-26 -5 -37 8 -7 15 -17 15 -23 0 -5 -8 -3 -19 7 -17 15 -19 15 -32 0 -8 -10
-13 -20 -11 -23 1 -3 -2 -7 -8 -7 -21 -3 -22 -4 -11 -17 13 -17 2 -30 -14 -17
-8 7 -22 5 -44 -6 -37 -18 -41 -27 -7 -14 13 5 27 6 32 2 4 -4 4 -1 0 6 -10
16 9 16 23 -1 8 -10 4 -19 -20 -36 -17 -13 -28 -25 -26 -28 3 -2 14 4 25 14
11 10 39 36 63 59 59 54 126 152 89 129 -13 -8 -13 1 0 25 11 20 3 30 -17 23z
m7 -23 c-6 -11 -8 -25 -5 -30 3 -6 -1 -20 -9 -32 -14 -19 -16 -20 -16 -5 0 10
-4 15 -10 12 -5 -3 3 12 17 35 28 42 41 54 23 20z m-51 -93 c8 -10 2 -21 -26
-48 -21 -19 -32 -27 -25 -18 9 12 9 18 -1 29 -8 9 -9 11 0 6 11 -6 26 8 29 27
4 22 7 22 23 4z"/>
<path d="M1623 133 c4 -3 -1 -16 -10 -27 -18 -21 -18 -21 4 -2 20 16 23 36 6
36 -4 0 -3 -3 0 -7z"/>
<path d="M1328 243 c6 -2 18 -2 25 0 6 3 1 5 -13 5 -14 0 -19 -2 -12 -5z"/>
<path d="M1921 234 c0 -11 3 -14 6 -6 3 7 2 16 -1 19 -3 4 -6 -2 -5 -13z"/>
<path d="M1873 180 c0 -30 2 -43 4 -28 2 16 2 40 0 56 -2 15 -4 2 -4 -28z"/>
<path d="M1921 184 c0 -11 3 -14 6 -6 3 7 2 16 -1 19 -3 4 -6 -2 -5 -13z"/>
<path d="M2002 165 c0 -16 2 -22 5 -12 2 9 2 23 0 30 -3 6 -5 -1 -5 -18z"/>
<path d="M1467 169 c7 -7 15 -10 18 -7 3 3 -2 9 -12 12 -14 6 -15 5 -6 -5z"/>
<path d="M1580 165 c-7 -9 -19 -14 -26 -11 -17 6 -39 -20 -24 -29 6 -4 10 -3
9 2 -3 19 2 27 9 15 6 -9 14 -6 32 13 13 14 21 25 18 25 -3 0 -11 -7 -18 -15z"/>
<path d="M1888 108 c-4 -77 -3 -108 5 -108 4 0 7 32 7 70 0 71 -9 98 -12 38z"/>
<path d="M2078 98 c5 -5 16 -8 23 -6 8 3 3 7 -10 11 -17 4 -21 3 -13 -5z"/>
<path d="M1659 88 c-23 -20 -53 -58 -45 -58 7 0 66 58 66 65 0 8 -5 6 -21 -7z"/>
<path d="M2145 91 c17 -8 14 -10 -17 -10 -24 -1 -58 -14 -95 -36 -68 -41 -73
-42 -74 -12 -1 17 -2 18 -6 4 -2 -9 -8 -15 -13 -12 -4 3 -10 -1 -13 -8 -9 -23
90 -20 130 3 41 24 82 25 149 5 27 -8 50 -15 52 -15 1 0 2 13 2 30 0 17 -5 30
-12 30 -9 0 -8 4 2 10 12 7 8 10 -15 10 -16 0 -48 3 -70 5 -30 4 -35 3 -20 -4z
m73 -18 c-10 -2 -26 -2 -35 0 -10 3 -2 5 17 5 19 0 27 -2 18 -5z"/>
<path d="M1338 63 c7 -3 16 -2 19 1 4 3 -2 6 -13 5 -11 0 -14 -3 -6 -6z"/>
<path d="M2002 56 c-36 -21 -38 -27 -4 -15 18 6 35 15 38 20 7 12 -6 10 -34
-5z"/>
<path d="M1753 25 c-3 -9 -3 -19 1 -22 3 -4 6 1 6 10 0 8 6 18 13 20 9 4 9 6
-1 6 -7 1 -15 -6 -19 -14z"/>
<path d="M1580 9 c0 -5 5 -7 10 -4 6 3 10 8 10 11 0 2 -4 4 -10 4 -5 0 -10 -5
-10 -11z"/>
</g>
</svg>
